<svg width="200" height="200" viewBox="0 0 200 200" fill="none" xmlns="http://www.w3.org/2000/svg">
<path d="M0 0H48.5597C75.3784 0 97.1193 21.7409 97.1193 48.5597V48.5597C97.1193 75.3784 75.3784 97.1193 48.5597 97.1193H0V0Z" fill="white"/>
<path d="M0 155.555C0 126.464 23.5833 102.881 52.6749 102.881H97.1193V200H0V155.555Z" fill="white"/>
<path d="M102.881 151.44C102.881 124.622 124.622 102.881 151.441 102.881H200V200H151.441C124.622 200 102.881 178.259 102.881 151.44V151.44Z" fill="white"/>
<path d="M102.881 0H200V44.4445C200 73.536 176.417 97.1193 147.325 97.1193H102.881V0Z" fill="white"/>
</svg>
